<?xml version="1.0" encoding="UTF-8" standalone="no"?>
<svg
   xmlns:dc="http://purl.org/dc/elements/1.1/"
   xmlns:cc="http://creativecommons.org/ns#"
   xmlns:rdf="http://www.w3.org/1999/02/22-rdf-syntax-ns#"
   xmlns:svg="http://www.w3.org/2000/svg"
   xmlns="http://www.w3.org/2000/svg"
   width="30.421991"
   height="30.420864"
   viewBox="0 0 30.42199 30.420865"
   id="svg5642"
   version="1.1">
  <defs
     id="defs5644" />
  <metadata
     id="metadata5647">
    <rdf:RDF>
      <cc:Work
         rdf:about="">
        <dc:format>image/svg+xml</dc:format>
        <dc:type
           rdf:resource="http://purl.org/dc/dcmitype/StillImage" />
        <dc:title></dc:title>
      </cc:Work>
    </rdf:RDF>
  </metadata>
  <path
     id="path4140"
     d="m 17.577416,0.06447458 0,30.35736042 3.454228,0 0,-30.35736042 -3.454228,0 z"
     style="color:#000000;font-style:normal;font-variant:normal;font-weight:normal;font-stretch:normal;font-size:medium;line-height:normal;font-family:sans-serif;text-indent:0;text-align:start;text-decoration:none;text-decoration-line:none;text-decoration-style:solid;text-decoration-color:#000000;letter-spacing:normal;word-spacing:normal;text-transform:none;direction:ltr;block-progression:tb;writing-mode:lr-tb;baseline-shift:baseline;text-anchor:start;white-space:normal;clip-rule:nonzero;display:inline;overflow:visible;visibility:visible;opacity:1;isolation:auto;mix-blend-mode:normal;color-interpolation:sRGB;color-interpolation-filters:linearRGB;solid-color:#000000;solid-opacity:1;fill:#159e15;fill-opacity:1;fill-rule:evenodd;stroke:none;stroke-width:3;stroke-linecap:butt;stroke-linejoin:round;stroke-miterlimit:4;stroke-dasharray:none;stroke-dashoffset:0;stroke-opacity:1;marker:none;color-rendering:auto;image-rendering:auto;shape-rendering:auto;text-rendering:auto;enable-background:accumulate" />
  <path
     id="path4142"
     d="m 23.558787,15.243155 a 6.3689696,6.3689696 0 0 1 -6.368971,6.368969 6.3689696,6.3689696 0 0 1 -6.36897,-6.368969 6.3689696,6.3689696 0 0 1 6.36897,-6.3689692 6.3689696,6.3689696 0 0 1 6.368971,6.3689692 z"
     style="color:#000000;display:inline;overflow:visible;visibility:visible;opacity:1;fill:#159515;fill-opacity:1;fill-rule:evenodd;stroke:none;stroke-width:2;stroke-linecap:butt;stroke-linejoin:round;stroke-miterlimit:4;stroke-dasharray:none;stroke-dashoffset:0;stroke-opacity:1;marker:none;enable-background:accumulate" />
  <g
     transform="matrix(1.2325197,0,0,1.1212098,-2.0696238,-1.2979424)"
     id="text4134"
     style="font-style:normal;font-variant:normal;font-weight:normal;font-stretch:normal;font-size:32.18430328px;line-height:125%;font-family:'8514fix';-inkscape-font-specification:'8514fix';text-align:center;letter-spacing:0px;word-spacing:0px;text-anchor:middle;fill:#000000;fill-opacity:1;stroke:none;stroke-width:1px;stroke-linecap:butt;stroke-linejoin:miter;stroke-opacity:1">
    <path
       id="path4150"
       style="fill:#158b15;fill-opacity:1"
       d="m 23.252756,4.8131689 0,3.3472933 Q 21.649827,6.6675379 19.826888,5.9289333 18.019664,5.1903287 15.976715,5.1903287 q -4.023038,0 -6.1602768,2.4672537 -2.1372389,2.4515386 -2.1372389,7.1031766 0,4.635922 2.1372389,7.103176 2.1372388,2.451539 6.1602768,2.451539 2.042949,0 3.850173,-0.738605 1.822939,-0.738604 3.425868,-2.231529 l 0,3.315864 q -1.665789,1.131479 -3.535873,1.697219 -1.854369,0.565739 -3.928748,0.565739 -5.327382,0 -8.3918056,-3.253003 -3.0644234,-3.268718 -3.0644234,-8.9104 0,-5.6573973 3.0644234,-8.9104006 3.0644236,-3.2687183 8.3918056,-3.2687183 2.105809,0 3.960178,0.5657397 1.870084,0.5500247 3.504443,1.6657891 z" />
  </g>
  <path
     id="path4138"
     d="m 12.382581,0.06447458 0,30.35736042 3.454228,0 0,-30.35736042 -3.454228,0 z"
     style="color:#000000;font-style:normal;font-variant:normal;font-weight:normal;font-stretch:normal;font-size:medium;line-height:normal;font-family:sans-serif;text-indent:0;text-align:start;text-decoration:none;text-decoration-line:none;text-decoration-style:solid;text-decoration-color:#000000;letter-spacing:normal;word-spacing:normal;text-transform:none;direction:ltr;block-progression:tb;writing-mode:lr-tb;baseline-shift:baseline;text-anchor:start;white-space:normal;clip-rule:nonzero;display:inline;overflow:visible;visibility:visible;opacity:1;isolation:auto;mix-blend-mode:normal;color-interpolation:sRGB;color-interpolation-filters:linearRGB;solid-color:#000000;solid-opacity:1;fill:#159e15;fill-opacity:1;fill-rule:evenodd;stroke:none;stroke-width:3;stroke-linecap:butt;stroke-linejoin:round;stroke-miterlimit:4;stroke-dasharray:none;stroke-dashoffset:0;stroke-opacity:1;marker:none;color-rendering:auto;image-rendering:auto;shape-rendering:auto;text-rendering:auto;enable-background:accumulate" />
</svg>
