<?xml version="1.0" encoding="UTF-8" standalone="no"?>
<svg
   xmlns:dc="http://purl.org/dc/elements/1.1/"
   xmlns:cc="http://creativecommons.org/ns#"
   xmlns:rdf="http://www.w3.org/1999/02/22-rdf-syntax-ns#"
   xmlns:svg="http://www.w3.org/2000/svg"
   xmlns="http://www.w3.org/2000/svg"
   xmlns:sodipodi="http://sodipodi.sourceforge.net/DTD/sodipodi-0.dtd"
   xmlns:inkscape="http://www.inkscape.org/namespaces/inkscape"
   version="1.1"
   id="svg5642"
   viewBox="0 0 30.42199 30.420865"
   height="30.420864"
   width="30.421991"
   inkscape:version="0.91 r13725"
   sodipodi:docname="spaceship.svg">
  <sodipodi:namedview
     pagecolor="#ffffff"
     bordercolor="#666666"
     borderopacity="1"
     objecttolerance="10"
     gridtolerance="10"
     guidetolerance="10"
     inkscape:pageopacity="0"
     inkscape:pageshadow="2"
     inkscape:window-width="1856"
     inkscape:window-height="1058"
     id="namedview7"
     showgrid="false"
     inkscape:zoom="2.7428084"
     inkscape:cx="61.03819"
     inkscape:cy="96.432862"
     inkscape:window-x="56"
     inkscape:window-y="-8"
     inkscape:window-maximized="1"
     inkscape:current-layer="svg5642" />
  <defs
     id="defs5644" />
  <metadata
     id="metadata5647">
    <rdf:RDF>
      <cc:Work
         rdf:about="">
        <dc:format>image/svg+xml</dc:format>
        <dc:type
           rdf:resource="http://purl.org/dc/dcmitype/StillImage" />
        <dc:title />
      </cc:Work>
    </rdf:RDF>
  </metadata>
  <g
     transform="translate(0,-1021.9413)"
     id="layer1">
    <path
       id="ship"
       d="m 29.436118,1022.9262 c -0.116059,-0.1161 -0.241057,-0.2094 -0.371507,-0.2914 -3.004882,-2.1815 -10.224314,0.9322 -16.590769,7.2575 0,0 0.518051,-0.5044 -0.0028,0 -0.520848,0.5015 -4.5160907,1.2595 -4.5160907,1.2595 L 1.5619875,1037.542 0,1039.104 c 2.3881895,2.5359 6.9049465,-1.4026 9.0515189,0.7513 l 3.4554311,3.4554 c 2.153904,2.1465 -1.784597,6.6633 0.751302,9.0515 l 1.561987,-1.562 6.392964,-6.3929 c 0,0 0.757987,-3.9953 1.259534,-4.5161 0.492559,-0.5115 0.0215,-0.027 0.0042,-0.01 6.294776,-6.3388 9.406945,-13.5222 7.278208,-16.5479 -0.08943,-0.1426 -0.191479,-0.2799 -0.319027,-0.4074 z m -4.15149,4.1515 c 1.092656,1.0923 1.093273,2.8636 0.0014,3.9567 -1.092934,1.0932 -2.865206,1.0932 -3.95814,0 -1.093195,-1.0929 -1.093195,-2.8652 0,-3.9581 1.093157,-1.0919 2.864364,-1.0913 3.956759,0 z M 9.9741123,1042.518 c -0.85786,-0.8244 -1.835264,-1.4956 -2.5936466,-1.7705 -0.4434995,-0.7243 -3.9699959,6.7327 -3.2883223,8.3016 4.6507742,-2.1746 4.7972967,-1.2595 7.7519336,-3.838 -0.274462,-0.8917 -1.012105,-1.8687 -1.8699647,-2.6931 z"
       style="color:#000000;display:inline;overflow:visible;visibility:visible;opacity:1;fill:#ec3131;fill-opacity:1;fill-rule:evenodd;stroke:none;stroke-width:2;stroke-linecap:butt;stroke-linejoin:round;stroke-miterlimit:4;stroke-dasharray:none;stroke-dashoffset:0;stroke-opacity:1;marker:none;enable-background:accumulate"
       class="ship"
       inkscape:connector-curvature="0" />
  </g>
</svg>
