<?xml version="1.0" encoding="UTF-8" standalone="no"?>
<!-- Created with Inkscape (http://www.inkscape.org/) -->

<svg
   xmlns:dc="http://purl.org/dc/elements/1.1/"
   xmlns:cc="http://creativecommons.org/ns#"
   xmlns:rdf="http://www.w3.org/1999/02/22-rdf-syntax-ns#"
   xmlns:svg="http://www.w3.org/2000/svg"
   xmlns="http://www.w3.org/2000/svg"
   xmlns:sodipodi="http://sodipodi.sourceforge.net/DTD/sodipodi-0.dtd"
   xmlns:inkscape="http://www.inkscape.org/namespaces/inkscape"
   width="10"
   height="10"
   viewBox="0 0 10 10"
   id="svg2"
   version="1.1"
   inkscape:version="0.91 r13725"
   sodipodi:docname="nameplateIcons.svg">
  <defs
     id="defs4" />
  <sodipodi:namedview
     id="base"
     pagecolor="#ffffff"
     bordercolor="#666666"
     borderopacity="1.0"
     inkscape:pageopacity="0.0"
     inkscape:pageshadow="2"
     inkscape:zoom="90.509668"
     inkscape:cx="7.4591436"
     inkscape:cy="5.2764945"
     inkscape:document-units="px"
     inkscape:current-layer="layer1"
     showgrid="false"
     inkscape:window-width="1856"
     inkscape:window-height="1058"
     inkscape:window-x="56"
     inkscape:window-y="-8"
     inkscape:window-maximized="1"
     units="px"
     fit-margin-top="0"
     fit-margin-left="0"
     fit-margin-right="0"
     fit-margin-bottom="0" />
  <metadata
     id="metadata7">
    <rdf:RDF>
      <cc:Work
         rdf:about="">
        <dc:format>image/svg+xml</dc:format>
        <dc:type
           rdf:resource="http://purl.org/dc/dcmitype/StillImage" />
        <dc:title></dc:title>
      </cc:Work>
    </rdf:RDF>
  </metadata>
  <g
     inkscape:label="Vrstva 1"
     inkscape:groupmode="layer"
     id="layer1"
     transform="translate(0,-1042.3621)">
    <rect
       style="color:#000000;display:inline;overflow:visible;visibility:visible;opacity:1;fill:#000000;fill-opacity:1;fill-rule:nonzero;stroke:none;stroke-width:20;stroke-linecap:butt;stroke-linejoin:miter;stroke-miterlimit:4;stroke-dasharray:none;stroke-dashoffset:0;stroke-opacity:1;marker:none;enable-background:accumulate"
       id="rect4136"
       width="21.213203"
       height="16.130873"
       x="-5.9346461"
       y="1039.4196" />
    <circle
       style="color:#000000;display:inline;overflow:visible;visibility:visible;opacity:1;fill:#ffffff;fill-opacity:0.44728435;fill-rule:nonzero;stroke:none;stroke-width:20;stroke-linecap:butt;stroke-linejoin:miter;stroke-miterlimit:4;stroke-dasharray:none;stroke-dashoffset:0;stroke-opacity:1;marker:none;enable-background:accumulate"
       id="path4134"
       cx="5"
       cy="1047.3621"
       r="5" />
    <path
       inkscape:connector-curvature="0"
       id="rect4138"
       d="m 5,1042.366 c -1.0706688,1.0704 -2.1404101,2.1403 -3.2109375,3.2109 l 0.5722656,0.1368 2.640625,-2.6407 4.2890625,4.2891 -4.2890625,4.2891 L 1.46875,1048.8269 5,1052.3582 9.9980469,1047.3621 5,1042.366 Z m -0.1425781,1.1152 c -0.7758379,0.7759 -1.5308029,1.5328 -2.3066407,2.3086 l 0.3339844,0.1153 2.1992188,-2.1992 -0.2265625,-0.2247 z m 3.2363281,3.2403 -3.7890625,3.789 0.71875,0.7188 3.7890625,-3.7891 -0.71875,-0.7187 z m -3.2363281,1.4707 -1.4257813,1.4238 0.71875,0.7188 1.4238282,-1.4258 -0.7167969,-0.7168 z"
       style="color:#000000;font-style:normal;font-variant:normal;font-weight:normal;font-stretch:normal;font-size:medium;line-height:normal;font-family:sans-serif;text-indent:0;text-align:start;text-decoration:none;text-decoration-line:none;text-decoration-style:solid;text-decoration-color:#000000;letter-spacing:normal;word-spacing:normal;text-transform:none;direction:ltr;block-progression:tb;writing-mode:lr-tb;baseline-shift:baseline;text-anchor:start;white-space:normal;clip-rule:nonzero;display:inline;overflow:visible;visibility:visible;opacity:1;isolation:auto;mix-blend-mode:normal;color-interpolation:sRGB;color-interpolation-filters:linearRGB;solid-color:#000000;solid-opacity:1;fill:#ffffff;fill-opacity:1;fill-rule:nonzero;stroke:none;stroke-width:0.5;stroke-linecap:butt;stroke-linejoin:miter;stroke-miterlimit:4;stroke-dasharray:none;stroke-dashoffset:0;stroke-opacity:1;marker:none;color-rendering:auto;image-rendering:auto;shape-rendering:auto;text-rendering:auto;enable-background:accumulate" />
    <path
       style="font-style:normal;font-variant:normal;font-weight:bold;font-stretch:normal;font-size:medium;line-height:125%;font-family:Exo;-inkscape-font-specification:'Exo Bold';text-align:center;letter-spacing:0px;word-spacing:0px;text-anchor:middle;fill:#ffffff;fill-opacity:1;stroke:none;stroke-width:1px;stroke-linecap:butt;stroke-linejoin:miter;stroke-opacity:1"
       d="M 3.9335938 3.6386719 L 3.8535156 3.7597656 L 3.9335938 3.7597656 L 4.0390625 3.6386719 L 3.9335938 3.6386719 z M 3.1230469 3.8164062 L 3.1230469 3.9277344 L 3.4121094 3.9277344 L 3.1230469 4.3378906 L 3.1230469 4.4511719 L 3.5585938 4.4511719 L 3.5585938 4.3378906 L 3.2832031 4.3378906 L 3.5585938 3.9277344 L 3.5585938 3.8164062 L 3.1230469 3.8164062 z M 3.8242188 3.8164062 L 3.6113281 4.4511719 L 3.7402344 4.4511719 L 3.7871094 4.3105469 L 3.9941406 4.3105469 L 4.0390625 4.4511719 L 4.1699219 4.4511719 L 3.9628906 3.8164062 L 3.8242188 3.8164062 z M 4.234375 3.8164062 L 4.234375 4.4511719 L 4.3515625 4.4511719 L 4.3515625 4.1894531 L 4.4003906 4.1894531 L 4.5625 4.4511719 L 4.703125 4.4511719 L 4.5097656 4.1347656 L 4.703125 3.8164062 L 4.5625 3.8164062 L 4.4003906 4.0820312 L 4.3496094 4.0820312 L 4.3496094 3.8164062 L 4.234375 3.8164062 z M 4.7792969 3.8164062 L 4.7792969 4.328125 L 4.7792969 4.3320312 C 4.7792969 4.4140979 4.8223073 4.4550781 4.9101562 4.4550781 L 5.171875 4.4550781 L 5.171875 4.34375 L 4.953125 4.34375 C 4.9380983 4.34375 4.9266381 4.340651 4.9179688 4.3339844 C 4.9058321 4.3293177 4.9003906 4.3149687 4.9003906 4.2929688 L 4.9003906 3.8164062 L 4.7792969 3.8164062 z M 5.4375 3.8164062 L 5.2226562 4.4511719 L 5.3535156 4.4511719 L 5.3984375 4.3105469 L 5.6074219 4.3105469 L 5.6523438 4.4511719 L 5.78125 4.4511719 L 5.5742188 3.8164062 L 5.4375 3.8164062 z M 5.8457031 3.8164062 L 5.8457031 4.4511719 L 6.1152344 4.4511719 C 6.1655164 4.4511719 6.206713 4.4374896 6.2402344 4.4101562 C 6.303231 4.3592896 6.3359375 4.2685187 6.3359375 4.1367188 C 6.3359375 3.9235188 6.2620346 3.8164062 6.1152344 3.8164062 L 5.8457031 3.8164062 z M 6.4199219 3.8164062 L 6.4199219 4.4511719 L 6.5410156 4.4511719 L 6.5410156 4.0449219 L 6.7949219 4.4511719 L 6.9160156 4.4511719 L 6.9160156 3.8164062 L 6.7949219 3.8164062 L 6.7949219 4.2265625 L 6.5429688 3.8164062 L 6.4199219 3.8164062 z M 7.1972656 3.8164062 L 6.984375 4.4511719 L 7.1132812 4.4511719 L 7.1601562 4.3105469 L 7.3671875 4.3105469 L 7.4121094 4.4511719 L 7.5429688 4.4511719 L 7.3359375 3.8164062 L 7.1972656 3.8164062 z M 5.9667969 3.9238281 L 6.1054688 3.9238281 C 6.1291648 3.9238281 6.1490358 3.9287865 6.1640625 3.9394531 C 6.1975838 3.9643198 6.2148438 4.0295656 6.2148438 4.1347656 C 6.2148438 4.272899 6.177713 4.3417969 6.1054688 4.3417969 L 5.9667969 4.3417969 L 5.9667969 3.9238281 z M 3.8945312 3.9765625 L 3.9667969 4.203125 L 3.8183594 4.203125 L 3.8945312 3.9765625 z M 5.5078125 3.9765625 L 5.578125 4.203125 L 5.4316406 4.203125 L 5.5078125 3.9765625 z M 7.2675781 3.9765625 L 7.3398438 4.203125 L 7.1914062 4.203125 L 7.2675781 3.9765625 z "
       transform="translate(0,1042.3621)"
       id="path4183" />
  </g>
</svg>
