<?xml version="1.0" encoding="UTF-8" standalone="no"?>
<svg
   xmlns:dc="http://purl.org/dc/elements/1.1/"
   xmlns:cc="http://creativecommons.org/ns#"
   xmlns:rdf="http://www.w3.org/1999/02/22-rdf-syntax-ns#"
   xmlns:svg="http://www.w3.org/2000/svg"
   xmlns="http://www.w3.org/2000/svg"
   xmlns:sodipodi="http://sodipodi.sourceforge.net/DTD/sodipodi-0.dtd"
   xmlns:inkscape="http://www.inkscape.org/namespaces/inkscape"
   version="1.1"
   id="svg5642"
   viewBox="0 0 99.999996 100"
   height="100"
   width="100"
   inkscape:version="0.91 r13725"
   sodipodi:docname="spaceshipType5.svg">
  <sodipodi:namedview
     pagecolor="#ffffff"
     bordercolor="#666666"
     borderopacity="1"
     objecttolerance="10"
     gridtolerance="10"
     guidetolerance="10"
     inkscape:pageopacity="0"
     inkscape:pageshadow="2"
     inkscape:window-width="1856"
     inkscape:window-height="1058"
     id="namedview7"
     showgrid="false"
     inkscape:zoom="3.8789169"
     inkscape:cx="-18.293923"
     inkscape:cy="33.68807"
     inkscape:window-x="56"
     inkscape:window-y="-8"
     inkscape:window-maximized="1"
     inkscape:current-layer="svg5642"
     fit-margin-top="0"
     fit-margin-left="0"
     fit-margin-right="0"
     fit-margin-bottom="0"
     showguides="false" />
  <defs
     id="defs5644">
    <clipPath
       clipPathUnits="userSpaceOnUse"
       id="clipPath4140">
      <rect
         style="color:#000000;display:inline;overflow:visible;visibility:visible;opacity:1;fill:#86a6ef;fill-opacity:1;fill-rule:nonzero;stroke:#000000;stroke-width:0;stroke-linecap:butt;stroke-linejoin:miter;stroke-miterlimit:4;stroke-dasharray:none;stroke-dashoffset:0;stroke-opacity:1;marker:none;enable-background:accumulate"
         id="rect4142"
         width="19.256542"
         height="10.241838"
         x="735.49274"
         y="714.5329"
         transform="matrix(0.70620302,0.70800939,-0.70803558,0.70617676,0,0)" />
    </clipPath>
    <clipPath
       clipPathUnits="userSpaceOnUse"
       id="clipPath4155">
      <g
         style="fill:#e6e6e6"
         id="g4157"
         transform="matrix(2.3243277,-2.3243277,2.3244139,2.3244139,-2375.4147,-2375.4147)">
        <path
           sodipodi:nodetypes="ccccccccccccccccccccccc"
           inkscape:connector-curvature="0"
           class="mainColor"
           style="color:#000000;display:inline;overflow:visible;visibility:visible;opacity:1;fill:#e6e6e6;fill-opacity:1;fill-rule:evenodd;stroke:none;stroke-width:2;stroke-linecap:butt;stroke-linejoin:round;stroke-miterlimit:4;stroke-dasharray:none;stroke-dashoffset:0;stroke-opacity:1;marker:none;enable-background:accumulate"
           d="m 29.436118,1022.9262 c -0.116059,-0.1161 -0.241057,-0.2094 -0.371507,-0.2914 -3.004882,-2.1815 -10.224314,0.9322 -16.590769,7.2575 0,0 0.518051,-0.5044 -0.0028,0 -0.520848,0.5015 -4.5160907,1.2595 -4.5160907,1.2595 L 1.5619875,1037.542 0,1039.104 c 2.3881895,2.5359 6.9049465,-1.4026 9.0515189,0.7513 l 3.4554311,3.4554 c 2.153904,2.1465 -1.784597,6.6633 0.751302,9.0515 l 1.561987,-1.562 6.392964,-6.3929 c 0,0 0.757987,-3.9953 1.259534,-4.5161 0.492559,-0.5115 0.0215,-0.027 0.0042,-0.01 6.294776,-6.3388 9.406945,-13.5222 7.278208,-16.5479 -0.08943,-0.1426 -0.191479,-0.2799 -0.319027,-0.4074 z m -4.15149,4.1515 c 1.092656,1.0923 1.093273,2.8636 0.0014,3.9567 -1.092934,1.0932 -2.865206,1.0932 -3.95814,0 -1.093195,-1.0929 -1.093195,-2.8652 0,-3.9581 1.093157,-1.0919 2.864364,-1.0913 3.956759,0 z"
           id="path4159" />
      </g>
    </clipPath>
    <clipPath
       clipPathUnits="userSpaceOnUse"
       id="clipPath4164">
      <rect
         style="color:#000000;display:inline;overflow:visible;visibility:visible;opacity:1;fill:#cccccc;fill-opacity:1;fill-rule:nonzero;stroke:#000000;stroke-width:0;stroke-linecap:butt;stroke-linejoin:miter;stroke-miterlimit:4;stroke-dasharray:none;stroke-dashoffset:0;stroke-opacity:1;marker:none;enable-background:accumulate"
         id="rect4166"
         width="65.125732"
         height="13.820914"
         x="38.921219"
         y="-10.57621"
         transform="matrix(0.70710678,0.70710678,-0.70710678,0.70710678,0,0)" />
    </clipPath>
    <clipPath
       clipPathUnits="userSpaceOnUse"
       id="clipPath4174">
      <g
         style="fill:#e6e6e6"
         id="g4176"
         transform="matrix(2.3243277,-2.3243277,2.3244139,2.3244139,-2375.4147,-2375.4147)">
        <path
           sodipodi:nodetypes="ccccccccccccccccccccccc"
           inkscape:connector-curvature="0"
           class="mainColor"
           style="color:#000000;display:inline;overflow:visible;visibility:visible;opacity:1;fill:#e6e6e6;fill-opacity:1;fill-rule:evenodd;stroke:none;stroke-width:2;stroke-linecap:butt;stroke-linejoin:round;stroke-miterlimit:4;stroke-dasharray:none;stroke-dashoffset:0;stroke-opacity:1;marker:none;enable-background:accumulate"
           d="m 29.436118,1022.9262 c -0.116059,-0.1161 -0.241057,-0.2094 -0.371507,-0.2914 -3.004882,-2.1815 -10.224314,0.9322 -16.590769,7.2575 0,0 0.518051,-0.5044 -0.0028,0 -0.520848,0.5015 -4.5160907,1.2595 -4.5160907,1.2595 L 1.5619875,1037.542 0,1039.104 c 2.3881895,2.5359 6.9049465,-1.4026 9.0515189,0.7513 l 3.4554311,3.4554 c 2.153904,2.1465 -1.784597,6.6633 0.751302,9.0515 l 1.561987,-1.562 6.392964,-6.3929 c 0,0 0.757987,-3.9953 1.259534,-4.5161 0.492559,-0.5115 0.0215,-0.027 0.0042,-0.01 6.294776,-6.3388 9.406945,-13.5222 7.278208,-16.5479 -0.08943,-0.1426 -0.191479,-0.2799 -0.319027,-0.4074 z m -4.15149,4.1515 c 1.092656,1.0923 1.093273,2.8636 0.0014,3.9567 -1.092934,1.0932 -2.865206,1.0932 -3.95814,0 -1.093195,-1.0929 -1.093195,-2.8652 0,-3.9581 1.093157,-1.0919 2.864364,-1.0913 3.956759,0 z"
           id="path4178" />
      </g>
    </clipPath>
    <clipPath
       clipPathUnits="userSpaceOnUse"
       id="clipPath4186">
      <g
         style="fill:#e6e6e6"
         id="g4188"
         transform="matrix(2.3243277,-2.3243277,2.3244139,2.3244139,-2375.4147,-2375.4147)">
        <path
           sodipodi:nodetypes="ccccccccccccccccccccccc"
           inkscape:connector-curvature="0"
           class="mainColor"
           style="color:#000000;display:inline;overflow:visible;visibility:visible;opacity:1;fill:#e6e6e6;fill-opacity:1;fill-rule:evenodd;stroke:none;stroke-width:2;stroke-linecap:butt;stroke-linejoin:round;stroke-miterlimit:4;stroke-dasharray:none;stroke-dashoffset:0;stroke-opacity:1;marker:none;enable-background:accumulate"
           d="m 29.436118,1022.9262 c -0.116059,-0.1161 -0.241057,-0.2094 -0.371507,-0.2914 -3.004882,-2.1815 -10.224314,0.9322 -16.590769,7.2575 0,0 0.518051,-0.5044 -0.0028,0 -0.520848,0.5015 -4.5160907,1.2595 -4.5160907,1.2595 L 1.5619875,1037.542 0,1039.104 c 2.3881895,2.5359 6.9049465,-1.4026 9.0515189,0.7513 l 3.4554311,3.4554 c 2.153904,2.1465 -1.784597,6.6633 0.751302,9.0515 l 1.561987,-1.562 6.392964,-6.3929 c 0,0 0.757987,-3.9953 1.259534,-4.5161 0.492559,-0.5115 0.0215,-0.027 0.0042,-0.01 6.294776,-6.3388 9.406945,-13.5222 7.278208,-16.5479 -0.08943,-0.1426 -0.191479,-0.2799 -0.319027,-0.4074 z m -4.15149,4.1515 c 1.092656,1.0923 1.093273,2.8636 0.0014,3.9567 -1.092934,1.0932 -2.865206,1.0932 -3.95814,0 -1.093195,-1.0929 -1.093195,-2.8652 0,-3.9581 1.093157,-1.0919 2.864364,-1.0913 3.956759,0 z"
           id="path4190" />
      </g>
    </clipPath>
  </defs>
  <metadata
     id="metadata5647">
    <rdf:RDF>
      <cc:Work
         rdf:about="">
        <dc:format>image/svg+xml</dc:format>
        <dc:type
           rdf:resource="http://purl.org/dc/dcmitype/StillImage" />
        <dc:title></dc:title>
      </cc:Work>
    </rdf:RDF>
  </metadata>
  <g
     id="g4257">
    <path
       class="additionalColor"
       sodipodi:nodetypes="cccccccc"
       inkscape:connector-curvature="0"
       id="path4163"
       d="m 79.596093,55.734022 -6.326454,0.258878 -3.463074,2.72975 2e-6,36.651627 19.578517,0 0,-36.651626 -3.462541,-2.729752 z"
       style="color:#000000;display:inline;overflow:visible;visibility:visible;opacity:1;fill:#b3b3b3;fill-opacity:1;fill-rule:nonzero;stroke:#000000;stroke-width:0;stroke-linecap:butt;stroke-linejoin:miter;stroke-miterlimit:4;stroke-dasharray:none;stroke-dashoffset:0;stroke-opacity:1;marker:none;enable-background:accumulate" />
    <path
       style="color:#000000;display:inline;overflow:visible;visibility:visible;opacity:1;fill:#b3b3b3;fill-opacity:1;fill-rule:nonzero;stroke:#000000;stroke-width:0;stroke-linecap:butt;stroke-linejoin:miter;stroke-miterlimit:4;stroke-dasharray:none;stroke-dashoffset:0;stroke-opacity:1;marker:none;enable-background:accumulate"
       d="m 20.302045,55.734022 -6.326456,0.258878 -3.463071,2.72975 10e-7,36.651627 19.578518,0 0,-36.651626 -3.462541,-2.729752 z"
       id="path4161"
       inkscape:connector-curvature="0"
       sodipodi:nodetypes="cccccccc"
       class="additionalColor" />
    <path
       id="path4222"
       d="m 41.002713,26.136498 -0.0092,0 c -1.712077,1.648539 -14.844823,4.14025 -14.844823,4.14025 l 43.58114,43.573715 c 0,0 2.491575,-13.133421 4.140208,-14.845404 l 0.01381,-0.03287 z"
       style="color:#000000;display:inline;overflow:visible;visibility:visible;opacity:1;fill:#ff6600;fill-opacity:1;fill-rule:evenodd;stroke:none;stroke-width:2;stroke-linecap:butt;stroke-linejoin:round;stroke-miterlimit:4;stroke-dasharray:none;stroke-dashoffset:0;stroke-opacity:1;marker:none;enable-background:accumulate"
       class="secondaryColor"
       inkscape:connector-curvature="0"
       sodipodi:nodetypes="ccccccc"
       clip-path="url(#clipPath4164)"
       transform="matrix(0.69698759,-0.56005952,0.69698759,0.56005952,-20.423149,83.854805)" />
    <path
       id="ship"
       d="m 32.942474,13.858878 -6.533423,30.674585 c 0,0 0.03124,-1.882336 -0.0063,0.0051 -0.04428,1.882144 -7.460956,10.632769 -7.460956,10.632769 l 0.283612,32.801894 22.45912,-9.529125 15.833456,1.8e-4 22.459464,9.529757 -0.289797,-32.806864 c 0,0 -7.417238,-8.750928 -7.461392,-10.633072 -0.04345,-1.848478 -0.01265,-0.0893 -0.01334,-0.02615 l -7.17443,-30.664005 c 0,0 -2.406702,-12.6513263 -16.048007,-12.6513263 -13.641307,0 -16.048007,12.6662573 -16.048007,12.6662573 z"
       style="color:#000000;display:inline;overflow:visible;visibility:visible;opacity:1;fill:#e6e6e6;fill-opacity:1;fill-rule:evenodd;stroke:none;stroke-width:2;stroke-linecap:butt;stroke-linejoin:round;stroke-miterlimit:4;stroke-dasharray:none;stroke-dashoffset:0;stroke-opacity:1;marker:none;enable-background:accumulate"
       class="primaryColor"
       inkscape:connector-curvature="0"
       sodipodi:nodetypes="cccccccccccczc" />
    <path
       transform="matrix(0.69698759,-0.56005952,0.69698759,0.56005952,-20.423149,52.859427)"
       clip-path="url(#clipPath4164)"
       sodipodi:nodetypes="ccccccc"
       inkscape:connector-curvature="0"
       class="secondaryColor"
       style="color:#000000;display:inline;overflow:visible;visibility:visible;opacity:1;fill:#ff6600;fill-opacity:1;fill-rule:evenodd;stroke:none;stroke-width:2;stroke-linecap:butt;stroke-linejoin:round;stroke-miterlimit:4;stroke-dasharray:none;stroke-dashoffset:0;stroke-opacity:1;marker:none;enable-background:accumulate"
       d="m 41.002713,26.136498 -0.0092,0 c -1.712077,1.648539 -14.844823,4.14025 -14.844823,4.14025 l 43.58114,43.573715 c 0,0 2.491575,-13.133421 4.140208,-14.845404 l 0.01381,-0.03287 z"
       id="path4138" />
    <path
       sodipodi:nodetypes="czcccc"
       inkscape:connector-curvature="0"
       id="rect4238"
       d="m 44.12642,1.2891257 c 0,0 2.562049,-1.25679414 4.984517,-1.25679414 2.422467,0 4.984516,1.25679414 4.984516,1.25679414 l 0,30.1679783 -9.969033,0 z"
       style="color:#000000;display:inline;overflow:visible;visibility:visible;opacity:1;fill:#ff6600;fill-opacity:1;fill-rule:nonzero;stroke:#000000;stroke-width:0;stroke-linecap:butt;stroke-linejoin:miter;stroke-miterlimit:4;stroke-dasharray:none;stroke-dashoffset:0;stroke-opacity:1;marker:none;enable-background:accumulate" />
    <path
       sodipodi:nodetypes="cccc"
       inkscape:connector-curvature="0"
       id="rect4194"
       d="m 37.878167,42.811413 23.44144,0 c -0.130526,-7.111655 -1.296268,-16.232305 -11.721746,-16.23227 -10.425476,3.5e-5 -11.589165,9.12077 -11.719694,16.23227 z"
       style="color:#000000;display:inline;overflow:visible;visibility:visible;opacity:1;fill:#666666;fill-opacity:1;fill-rule:nonzero;stroke:#000000;stroke-width:0;stroke-linecap:butt;stroke-linejoin:miter;stroke-miterlimit:4;stroke-dasharray:none;stroke-dashoffset:0;stroke-opacity:1;marker:none;enable-background:accumulate" />
    <path
       class="additionalColor"
       sodipodi:nodetypes="cccccccc"
       inkscape:connector-curvature="0"
       id="rect4199"
       d="m 49.422865,47.917544 -8.072075,0.330309 -4.418617,3.482953 1e-6,46.764684 24.980699,1e-5 0,-46.764692 -4.41794,-3.482956 z"
       style="color:#000000;display:inline;overflow:visible;visibility:visible;opacity:1;fill:#b3b3b3;fill-opacity:1;fill-rule:nonzero;stroke:#000000;stroke-width:0;stroke-linecap:butt;stroke-linejoin:miter;stroke-miterlimit:4;stroke-dasharray:none;stroke-dashoffset:0;stroke-opacity:1;marker:none;enable-background:accumulate" />
  </g>
</svg>
